<?xml version="1.0" encoding="UTF-8"?><svg id="_イヤー_2" xmlns="http://www.w3.org/2000/svg" xmlns:xlink="http://www.w3.org/1999/xlink" viewBox="0 0 322 309.45"><defs><style>.cls-1,.cls-2,.cls-3{fill:#d12020;}.cls-4{fill:url(#_称未設定グラデーション_12-2);}.cls-2{font-size:78.09px;}.cls-2,.cls-3{font-family:Impact, Impact;}.cls-3{font-size:78.09px;}.cls-5{fill:url(#_称未設定グラデーション_12);}</style><linearGradient id="_称未設定グラデーション_12" x1="200.15" y1="6.65" x2="199.38" y2="123.14" gradientTransform="matrix(1, 0, 0, 1, 0, 0)" gradientUnits="userSpaceOnUse"><stop offset="0" stop-color="#c4c4c4"/><stop offset="0" stop-color="#fbcd01"/><stop offset="1" stop-color="#ee4d00"/></linearGradient><linearGradient id="_称未設定グラデーション_12-2" x1="137.92" y1="115.56" x2="137.26" y2="215.54" xlink:href="#_称未設定グラデーション_12"/></defs><g id="_イヤー_1-2"><g><g><path class="cls-5" d="M193.96,0s-17.52,20.96,11.25,46.84c31.15,30.51,61.56,64.65,50.15,91.71-11.41,27.06-29.89,37.5-35.01,41.01-5.12,3.51-33.95,25.53-33.02,37.42-5.16-17.48-2.98-28.37,17.73-51.52,12.27-12.89,17.3-36.02,10.16-49.91-7.14-13.88-43.39-41.34-43.39-41.34,0,0,.98,10.06,11.18,26.77,10.2,16.7,15.61,47.88-4.27,63.75,1.51-9.08-2.93-30.19-5.96-33.92-3.03-3.73-27.47-27.21-30-49.18-2.53-21.97-8.43-58.17,51.18-81.63Z"/><path class="cls-4" d="M140.22,115.57s8.07,9.66-5.18,21.59c-14.36,14.06-28.37,29.8-23.12,42.27,5.26,12.47,13.78,17.29,16.13,18.9s15.65,11.77,15.22,17.25c2.38-8.06,1.37-13.07-8.17-23.75-5.66-5.94-7.98-16.6-4.68-23,3.29-6.4,20-19.05,20-19.05,0,0-.45,4.64-5.15,12.34-4.7,7.7-7.2,22.07,1.97,29.38-.69-4.19,1.35-13.92,2.75-15.64,1.4-1.72,12.66-12.54,13.83-22.67,1.17-10.13,3.88-26.81-23.59-37.62Z"/></g><text class="cls-2" transform="translate(157.12 285.15) scale(.87) skewX(-30)"><tspan x="0" y="0">KICK</tspan></text><text class="cls-3" transform="translate(12.91 287.1) scale(.87) skewX(-30)"><tspan x="0" y="0" xml:space="preserve">F   RE</tspan></text><g><polygon class="cls-1" points="84.83 247.52 105.65 198.96 55.9 267.52 84.83 247.52"/><polygon class="cls-1" points="70.95 254.03 51.64 301.84 98.91 237.14 70.95 254.03"/></g></g></g></svg>