<?xml version="1.0" encoding="UTF-8"?><svg id="_レイヤー_2" xmlns="http://www.w3.org/2000/svg" viewBox="0 0 39.43 38.45"><defs><style>.cls-1{fill:#f15a24;font-family:HiraKakuStdN-W8-83pv-RKSJ-H, 'Hiragino Kaku Gothic StdN';font-size:8px;}.cls-2{fill:#df5656;}</style></defs><g id="_レイヤー_1-2"><g><text class="cls-1" transform="translate(0 34.07)"><tspan x="0" y="0">COURSE</tspan></text><g><polygon class="cls-2" points="15.76 14.95 22.94 16.88 22.94 16.25 15.76 14.32 15.76 14.95"/><polygon class="cls-2" points="15.76 12.02 22.94 13.94 22.94 13.31 15.76 11.39 15.76 12.02"/><polygon class="cls-2" points="15.76 9.08 22.94 11.01 22.94 10.38 15.76 8.46 15.76 9.08"/><polygon class="cls-2" points="20.71 6.85 15.76 5.52 15.76 6.15 20.71 7.48 20.71 6.85"/><path class="cls-2" d="M26.51,8.41l-.06-.08s0,0,0,0l-3.96-5.65h0s-.06-.09-.06-.09c-.07-.1-.17-.17-.28-.2l-.11-.03L13.28,.02c-.15-.04-.31,0-.44,.09-.12,.1-.2,.24-.2,.4V18.37c0,.23,.15,.43,.38,.49l12.95,3.47c.15,.04,.31,0,.44-.09,.12-.1,.2-.24,.2-.4V8.7c0-.1-.03-.21-.09-.29Zm-4.37-4.3l.69,.98,2.24,3.19-2.93-.78v-3.39h0Zm3.35,16.94l-11.74-3.14V1.3l7.78,2.08V7.74c0,.14,.09,.26,.23,.29l3.73,1v12.02Z"/></g></g></g></svg>