<?xml version="1.0" encoding="UTF-8"?><svg id="_レイヤー_2" xmlns="http://www.w3.org/2000/svg" viewBox="0 0 28.02 38.45"><defs><style>.cls-1{fill:#f15a24;font-family:HiraKakuStdN-W8-83pv-RKSJ-H, 'Hiragino Kaku Gothic StdN';font-size:8px;}.cls-2{fill:#df5656;}</style></defs><g id="_レイヤー_1-2"><g><text class="cls-1" transform="translate(0 34.07)"><tspan x="0" y="0">PRICE</tspan></text><g><path class="cls-2" d="M16.28,3.8s.2-.69,1.28-1.56c1.04-.84,.24-2-1.28-1.57-1.05,.29-.69-.67-2.17-.67s-1.12,.97-2.17,.67c-1.52-.43-2.32,.73-1.28,1.57,1.08,.87,1.28,1.56,1.28,1.56h4.34Z"/><path class="cls-2" d="M16.77,4.83c0,.25-.2,.45-.45,.45h-4.42c-.25,0-.45-.2-.45-.45h0c0-.25,.2-.45,.45-.45h4.42c.25,0,.45,.2,.45,.45h0Z"/><path class="cls-2" d="M16.28,5.85h-4.34c-.79,.79-4.65,3.61-4.65,7.37s3.05,6.82,6.82,6.82,6.82-3.05,6.82-6.82-3.86-6.59-4.65-7.37Zm.21,7.27h-1.64l-.18,.27v.66h1.81v.93h-1.81v1.4h-1.13v-1.4h-1.81v-.93h0s1.81,0,1.81,0v-.65l-.18-.27h-1.64v-.79h1.13l-.96-1.49h.95l1.25,1.95,1.25-1.95h.95l-.96,1.49h1.12v.79h0Z"/></g></g></g></svg>