<?xml version="1.0" encoding="UTF-8"?><svg id="_レイヤー_2" xmlns="http://www.w3.org/2000/svg" viewBox="0 0 21.34 38.45"><defs><style>.cls-1{fill:#f15a24;font-family:HiraKakuStdN-W8-83pv-RKSJ-H, 'Hiragino Kaku Gothic StdN';font-size:8px;}.cls-2{fill:#df5656;}</style></defs><g id="_レイヤー_1-2"><g><text class="cls-1" transform="translate(1.79 34.07)"><tspan x="0" y="0">FAQ</tspan></text><path class="cls-2" d="M10.55,0C4.73,0,0,4.72,0,10.54c0,5.83,4.72,10.55,10.54,10.55,2.01,0,3.97-.57,5.66-1.65l3.81,1.89-1.66-3.71c3.92-4.3,3.6-10.96-.7-14.88C15.71,.98,13.18,0,10.55,0h0Zm0,4.32c3.07,0,5.47,2.71,5.47,5.91,0,1.24-.37,2.46-1.06,3.49l.63,.61c.44,.42,.45,1.12,.03,1.56-.42,.44-1.12,.45-1.56,.03,0,0,0,0,0,0l-.66-.64c-.84,.56-1.83,.86-2.85,.86-3.07,0-5.47-2.71-5.47-5.91s2.4-5.91,5.47-5.91h0Zm0,2.21c-1.75,0-3.26,1.59-3.26,3.7s1.51,3.7,3.26,3.7c.41,0,.82-.09,1.19-.26l-.42-.4c-.44-.42-.47-1.12-.05-1.56,.42-.44,1.12-.47,1.56-.05,0,0,.02,.02,.02,.02l.48,.47c.31-.59,.47-1.25,.47-1.92,0-2.11-1.51-3.7-3.26-3.7h0Z"/></g></g></svg>