<?xml version="1.0" encoding="UTF-8"?><svg id="_イヤー_2" xmlns="http://www.w3.org/2000/svg" xmlns:xlink="http://www.w3.org/1999/xlink" viewBox="0 0 940.24 422.41"><defs><style>.cls-1{stroke:#ed4d00;stroke-width:6px;}.cls-1,.cls-2,.cls-3{fill:none;}.cls-1,.cls-2,.cls-3,.cls-4,.cls-5{stroke-miterlimit:10;}.cls-6,.cls-7{fill:#ed4d00;}.cls-8{fill:#fff;}.cls-9{fill:url(#_称未設定グラデーション_12-2);}.cls-10{letter-spacing:.25em;}.cls-7,.cls-11,.cls-12,.cls-13,.cls-14{font-family:HiraKakuStdN-W8-83pv-RKSJ-H, 'Hiragino Kaku Gothic StdN';}.cls-7,.cls-11,.cls-14{font-size:18px;}.cls-11,.cls-12,.cls-13{fill:#fffffd;}.cls-12{font-size:14px;}.cls-2{stroke-width:8px;}.cls-2,.cls-3{stroke:#fffffd;}.cls-15{fill:url(#_称未設定グラデーション_12);}.cls-3{stroke-width:21px;}.cls-13{font-size:10.32px;}.cls-14{fill:#fffffe;glyph-orientation-vertical:0deg;text-orientation:upright;writing-mode:tb;}.cls-4{fill:url(#_称未設定グラデーション_12-3);}.cls-4,.cls-5{stroke:#000;stroke-width:.75px;}.cls-5{fill:url(#_称未設定グラデーション_12-4);}</style><linearGradient id="_称未設定グラデーション_12" x1="634.23" y1="65.93" x2="633.86" y2="121.29" gradientTransform="matrix(1, 0, 0, 1, 0, 0)" gradientUnits="userSpaceOnUse"><stop offset="0" stop-color="#c4c4c4"/><stop offset="0" stop-color="#facc01"/><stop offset="1" stop-color="#ed4d00"/></linearGradient><linearGradient id="_称未設定グラデーション_12-2" x1="-5865.21" y1="-1908.61" x2="-5865.72" y2="-1833.33" gradientTransform="translate(-468.76 -615.7) rotate(-176.25) scale(.2 .36)" xlink:href="#_称未設定グラデーション_12"/><linearGradient id="_称未設定グラデーション_12-3" x1="638.27" y1="73.32" x2="638.12" y2="95.89" xlink:href="#_称未設定グラデーション_12"/><linearGradient id="_称未設定グラデーション_12-4" x1="630.72" y1="94.43" x2="630.59" y2="113.8" xlink:href="#_称未設定グラデーション_12"/></defs><g id="_イヤー_1-2"><g><polygon points="748.97 422.41 0 422.41 191.27 0 940.24 0 748.97 422.41"/><line class="cls-3" x1="495.37" y1="176.66" x2="277.96" y2="176.64"/><rect class="cls-6" x="230.55" y="111.51" width="94.61" height="60.17" transform="translate(75.12 378.55) rotate(-76.45)"/><path class="cls-1" d="M218.85,420.43c14.22-76.47,30.88-155.87,50.43-237.81,13.99-58.64,28.68-115.39,43.89-170.2"/><text class="cls-14" transform="translate(284.36 113.17) rotate(8.52)"><tspan x="0" y="0">難波駅</tspan></text><text class="cls-7" transform="translate(233.2 80.08)"><tspan x="0" y="0">J</tspan><tspan class="cls-10" x="12.37" y="0">R</tspan><tspan x="31.66" y="0">線</tspan></text><line class="cls-2" x1="382.67" y1="11.32" x2="336.39" y2="167.32"/><line class="cls-2" x1="423.45" y1="12.33" x2="377.16" y2="168.33"/><line class="cls-3" x1="454.48" y1="417.02" x2="508.91" y2="9.03"/><line class="cls-2" x1="691.75" y1="184.13" x2="487.07" y2="178.49"/><line class="cls-2" x1="543.44" y1="79.28" x2="508.83" y2="418.55"/><line class="cls-2" x1="590.6" y1="85.43" x2="570.88" y2="246.95"/><line class="cls-2" x1="651.85" y1="82.13" x2="489.13" y2="82.13"/><line class="cls-3" x1="743.87" y1="268.86" x2="630.18" y2="10.19"/><rect class="cls-6" x="595.23" y="138.62" width="64.4" height="33.58"/><text class="cls-11" transform="translate(606.34 160.33) rotate(.94) scale(.77 1)"><tspan x="0" y="0">HERE</tspan></text><g><circle class="cls-15" cx="634.05" cy="93.61" r="27.68"/><polygon class="cls-9" points="630.15 143.43 640.36 117.1 623.47 116 630.15 143.43"/></g><g><path class="cls-4" d="M637.48,72.04s-2.12,4.06,1.36,9.08c3.77,5.91,7.45,12.52,6.07,17.77-1.38,5.24-3.62,7.27-4.24,7.95s-4.11,4.95-4,7.25c-.62-3.39-.36-5.5,2.15-9.98,1.49-2.5,2.09-6.98,1.23-9.67-.86-2.69-5.25-8.01-5.25-8.01,0,0,.12,1.95,1.35,5.19,1.23,3.24,1.89,9.28-.52,12.35,.18-1.76-.35-5.85-.72-6.57-.37-.72-3.33-5.27-3.63-9.53-.31-4.26-1.02-11.27,6.2-15.81Z"/><path class="cls-5" d="M630.97,94.43s.98,1.87-.63,4.18c-1.74,2.72-3.43,5.77-2.8,8.19,.64,2.42,1.67,3.35,1.95,3.66s1.89,2.28,1.84,3.34c.29-1.56,.17-2.53-.99-4.6-.68-1.15-.97-3.22-.57-4.46,.4-1.24,2.42-3.69,2.42-3.69,0,0-.05,.9-.62,2.39-.57,1.49-.87,4.27,.24,5.69-.08-.81,.16-2.7,.33-3.03,.17-.33,1.53-2.43,1.67-4.39,.14-1.96,.47-5.19-2.86-7.29Z"/></g><text class="cls-7" transform="translate(571.36 309.09) rotate(.13)"><tspan x="0" y="0">難波駅２３番出口</tspan><tspan x="0" y="31.5">徒歩２分</tspan></text><rect class="cls-8" x="442.73" y="143.13" width="27.93" height="13.32" transform="translate(-1.29 4) rotate(-.5)"/><text class="cls-13" transform="translate(395.99 138.26) rotate(.23) scale(1.01 1)"><tspan x="0" y="0">ファミリーマート</tspan></text><rect class="cls-8" x="590.67" y="193.43" width="80.44" height="58.33"/><text class="cls-12" transform="translate(592 271.5) rotate(.09)"><tspan x="0" y="0">なん</tspan><tspan class="cls-10" x="28" y="0">ば</tspan><tspan x="45.5" y="0">CITY</tspan></text><rect class="cls-8" x="373.3" y="194.55" width="80.44" height="58.33"/><text class="cls-12" transform="translate(375.87 274.37) rotate(.09)"><tspan x="0" y="0">難波小学校</tspan></text></g></g></svg>