<?xml version="1.0" encoding="UTF-8"?><svg id="_イヤー_2" xmlns="http://www.w3.org/2000/svg" xmlns:xlink="http://www.w3.org/1999/xlink" viewBox="0 0 940.24 422.5"><defs><style>.cls-1{stroke-width:12px;}.cls-1,.cls-2,.cls-3,.cls-4,.cls-5,.cls-6{fill:none;}.cls-1,.cls-2,.cls-3,.cls-4,.cls-5,.cls-6,.cls-7,.cls-8{stroke-miterlimit:10;}.cls-1,.cls-3,.cls-4,.cls-5,.cls-6{stroke:#fffffd;}.cls-2{stroke:#ed4d00;stroke-width:6px;}.cls-3{stroke-width:15px;}.cls-9,.cls-10{fill:#ed4d00;}.cls-11{fill:#fff;}.cls-12{fill:url(#_称未設定グラデーション_12-2);}.cls-13{letter-spacing:.25em;}.cls-4{stroke-width:5px;}.cls-10,.cls-14{font-size:18px;}.cls-10,.cls-14,.cls-15{font-family:HiraKakuStdN-W8-83pv-RKSJ-H, 'Hiragino Kaku Gothic StdN';}.cls-14,.cls-15{fill:#fffffd;}.cls-15{font-size:14px;}.cls-5{stroke-width:16px;}.cls-16{fill:url(#_称未設定グラデーション_12);}.cls-6{stroke-width:21px;}.cls-7{fill:url(#_称未設定グラデーション_12-3);}.cls-7,.cls-8{stroke:#000;stroke-width:.75px;}.cls-8{fill:url(#_称未設定グラデーション_12-4);}</style><linearGradient id="_称未設定グラデーション_12" x1="412.7" y1="38.1" x2="412.33" y2="93.45" gradientTransform="matrix(1, 0, 0, 1, 0, 0)" gradientUnits="userSpaceOnUse"><stop offset="0" stop-color="#c4c4c4"/><stop offset="0" stop-color="#facc01"/><stop offset="1" stop-color="#ed4d00"/></linearGradient><linearGradient id="_称未設定グラデーション_12-2" x1="725.83" y1="-2210.82" x2="725.33" y2="-2135.54" gradientTransform="translate(602.02 -667.57) rotate(-176.25) scale(.2 .36)" xlink:href="#_称未設定グラデーション_12"/><linearGradient id="_称未設定グラデーション_12-3" x1="413.54" y1="42.46" x2="413.39" y2="65.02" xlink:href="#_称未設定グラデーション_12"/><linearGradient id="_称未設定グラデーション_12-4" x1="405.98" y1="63.56" x2="405.85" y2="82.93" xlink:href="#_称未設定グラデーション_12"/></defs><g id="_イヤー_1-2"><g><polygon points="748.97 422.41 0 422.41 191.27 0 940.24 0 748.97 422.41"/><line class="cls-3" x1="286.36" y1="51.72" x2="350.51" y2="418.36"/><line class="cls-6" x1="700.94" y1="100.83" x2="324.57" y2="253.06"/><rect class="cls-9" x="234.59" y="258.29" width="81.94" height="60.17" transform="translate(-113.15 198.92) rotate(-33.34)"/><path class="cls-5" d="M708.79,6.81c-3.44,11.17-19.69,68.18,14.71,127.21,36.74,63.05,103,79.9,114,82.51"/><line class="cls-1" x1="401.23" y1="33.51" x2="511.38" y2="406.63"/><line class="cls-1" x1="519.25" y1="9.3" x2="639.2" y2="420.82"/><line class="cls-4" x1="422.13" y1="89.92" x2="295.73" y2="126.08"/><rect class="cls-9" x="359.98" y="115.75" width="64.4" height="33.58" transform="translate(-5.09 16.16) rotate(-2.35)"/><text class="cls-14" transform="translate(371.38 139.4) rotate(-4.14) scale(.77 1)"><tspan x="0" y="0">HERE</tspan></text><g><circle class="cls-16" cx="412.51" cy="65.78" r="27.68"/><polygon class="cls-12" points="408.62 115.6 418.82 89.27 401.94 88.16 408.62 115.6"/></g><g><path class="cls-7" d="M412.75,41.17s-2.12,4.06,1.36,9.08c3.77,5.91,7.45,12.52,6.07,17.77-1.38,5.24-3.62,7.27-4.24,7.95s-4.11,4.95-4,7.25c-.62-3.39-.36-5.5,2.15-9.98,1.49-2.5,2.09-6.98,1.23-9.67-.86-2.69-5.25-8.01-5.25-8.01,0,0,.12,1.95,1.35,5.19,1.23,3.24,1.89,9.28-.52,12.35,.18-1.76-.35-5.85-.72-6.57-.37-.72-3.33-5.27-3.63-9.53-.31-4.26-1.02-11.27,6.2-15.81Z"/><path class="cls-8" d="M406.24,63.56s.98,1.87-.63,4.18c-1.74,2.72-3.43,5.77-2.8,8.19,.64,2.42,1.67,3.35,1.95,3.66s1.89,2.28,1.84,3.34c.29-1.56,.17-2.53-.99-4.6-.68-1.15-.97-3.22-.57-4.46,.4-1.24,2.42-3.69,2.42-3.69,0,0-.05,.9-.62,2.39-.57,1.49-.87,4.27,.24,5.69-.08-.81,.16-2.7,.33-3.03,.17-.33,1.53-2.43,1.67-4.39,.14-1.96,.47-5.19-2.86-7.29Z"/></g><path class="cls-2" d="M163.34,404.57c39.47-43.86,88.26-90.16,148.34-134.61C530.42,108.14,773.04,63.82,908.5,49.7"/><text class="cls-14" transform="translate(257.05 310.29) rotate(-30)"><tspan x="0" y="0">赤坂駅</tspan></text><text class="cls-14" transform="translate(242.52 71.67) rotate(-30)"><tspan x="0" y="0">一ツ木通り</tspan></text><rect class="cls-11" x="201.65" y="197.93" width="80.44" height="58.33" transform="translate(-85.01 170.32) rotate(-33.34)"/><text class="cls-15" transform="translate(163.37 213.95) rotate(-30)"><tspan x="0" y="0">Honda Innovation</tspan><tspan x="0" y="14">Tokyou Akasaka</tspan></text><rect class="cls-11" x="469.17" y="213.24" width="33.95" height="20.9" transform="translate(-42.93 304.02) rotate(-33.34)"/><text class="cls-15" transform="translate(481.52 261.3) rotate(-30)"><tspan x="0" y="0">トミヤビル</tspan></text><rect class="cls-11" x="455.06" y="153.79" width="27.93" height="13.32" transform="translate(-10.99 284.2) rotate(-33.34)"/><text class="cls-15" transform="translate(451.35 156.65) rotate(-30)"><tspan x="0" y="0">セブンイレブン</tspan></text><text class="cls-10" transform="translate(659.77 236.86) rotate(.13)"><tspan x="0" y="0">赤坂駅４番出口</tspan><tspan x="0" y="31.5">徒</tspan><tspan class="cls-13" x="18" y="31.5">歩3</tspan><tspan x="58.91" y="31.5">分</tspan></text><text class="cls-10" transform="translate(161.3 376.67) rotate(-37.45)"><tspan x="0" y="0">千代田線</tspan></text></g></g></svg>